<?xml version="1.0" encoding="UTF-8" standalone="no"?>
<svg
   viewBox="0 0 283.00488 335.45642"
   version="1.1"
   id="svg1"
   sodipodi:docname="logo-stacked-color.svg"
   width="283.00488"
   height="335.45642"
   xmlns:inkscape="http://www.inkscape.org/namespaces/inkscape"
   xmlns:sodipodi="http://sodipodi.sourceforge.net/DTD/sodipodi-0.dtd"
   xmlns="http://www.w3.org/2000/svg"
   xmlns:svg="http://www.w3.org/2000/svg">
  <defs
     id="defs1" />
  <sodipodi:namedview
     id="namedview1"
     pagecolor="#ffffff"
     bordercolor="#000000"
     borderopacity="0.25"
     inkscape:showpageshadow="2"
     inkscape:pageopacity="0.0"
     inkscape:pagecheckerboard="0"
     inkscape:deskcolor="#d1d1d1" />
  <g
     transform="matrix(0.49247,0,0,0.49247,4.33599,4.0226363e-7)"
     id="g1">
    <path
       fill="#1b3a5b"
       d="m 213.49336,0.29183142 c 19.717,-1.51400002 47.665,3.01899998 66.086,9.97899958 31.657,11.96 57.634,33.168 74.379,62.748 5.622,9.932 8.955,19.929 13.67,30.174999 12.547,27.271 37.124,50.934 64.083,63.88 7.468,3.585 14.61,5.423 22.22,8.321 10.537,4.011 51.745,5.681 99.745,20.681 l -187.024,0.012 c -16.789,-0.001 -37.309,-0.548 -53.748,0.332 -10.029,6.747 -14.206,11.005 -26.42,16.268 -24.516,10.564 -53.828,12.761 -79.694,6.388 -6.418,-1.581 -12.61,-4.13 -18.728,-6.506 -10.77,32.489 -9.732,67.736 2.93,99.535 -13.278,11.125 -26.474,24.057 -39.428,35.872 l -66.698995,60.473 c -2.784,-8.933 -6.067,-17.663 -8.172,-26.773 -8.398,-36.331 -7.489,-75.961 7.909,-110.364 20.742995,-46.344 49.572995,-68.411 94.871995,-86.186 20.022,13.141 38.008,18.677 62.184,17.691 26.336,-1.074 48.432,-10.773 66.42,-30.094 1.723,-1.892 3.369,-3.853 4.934,-5.877 14.909,-19.015 21.555,-43.221 18.447,-67.181999 -7.219,-56.112 -62.152,-82.317 -113.54,-80.004 -3.174,0.143 -7.822,3.768 -10.197,5.834 -28.758,25.017 -43.525,62.177 -44.571,99.819999 -0.455,15.309 1.423,28.831 3.915,43.81 -0.781,0.233 -1.557,0.481 -2.328,0.744 -41.217,13.958 -76.640995,47.026 -95.204995,85.841 -21.772,45.523 -23.741,94.516 -8.97,142.404 4.016,13.022 8.961,24.675 13.292,37.343 -15.805,0.205 -31.611,0.248 -47.416,0.131 -15.205,-42.754 -22.8810001,-76.479 -25.6620001,-122.132 -5.257,-86.289 15.7630001,-181.546 74.8550001,-247.345999 C 110.75936,26.381831 160.51636,2.6278314 213.49336,0.29183142 Z"
       id="path1" />
    <path
       fill="#1b3a5b"
       d="m 200.15936,330.97883 c 0.835,0.44 8.396,10.954 9.754,12.631 15.8,19.503 37.184,33.666 57.674,47.564 11.479,7.844 23.013,15.603 34.604,23.279 9.686,6.306 22.149,14.174 31.279,21.151 -37.305,0.4 -74.612,0.518 -111.919,0.354 l -130.809995,-0.105 c -1.527,-3.426 -2.786,-4.306 0.408,-6.988 16.089995,-13.511 31.560995,-27.962 47.045995,-42.188 12.229,-11.248 24.517,-22.43 36.864,-33.547 7.856,-7.105 16.917,-15.557 25.1,-22.151 z"
       id="path2" />
    <path
       fill="#1b3a5b"
       d="m 266.88736,79.250831 c 9.229,-1.886 18.248,4.04 20.18,13.26 1.933,9.218999 -3.948,18.267999 -13.158,20.245999 -9.275,1.993 -18.403,-3.938 -20.349,-13.223999 -1.946,-9.286 4.032,-18.383 13.327,-20.282 z"
       id="path3" />
  </g>
  <path
     d="m 25.208,335.45642 q -7.728,0 -13.432,-3.864 -5.704,-3.864 -8.74,-10.856 Q 0,313.65242 0,304.26842 q 0,-6.9 1.656,-12.696 1.748,-5.888 5.336,-10.212 3.588,-4.416 8.924,-6.808 5.428,-2.392 12.788,-2.392 6.072,0 10.58,1.656 4.508,1.656 7.452,4.692 2.944,2.944 4.232,6.992 1.38,4.048 1.104,8.832 l -12.512,1.564 q 0.184,-4.324 -1.196,-7.084 -1.38,-2.76 -3.956,-4.14 -2.576,-1.38 -6.164,-1.38 -4.232,0 -7.452,2.3 -3.22,2.208 -5.06,6.716 -1.84,4.508 -1.84,11.316 0,5.152 1.012,9.108 1.104,3.864 3.128,6.532 2.024,2.576 4.968,3.956 2.944,1.38 6.532,1.38 3.864,0 6.532,-1.38 2.76,-1.472 4.232,-4.048 1.472,-2.576 1.564,-6.072 H 31.74 v -9.568 h 21.988 v 10.948 19.688 h -9.384 l 0.276,-16.652 h -0.828 q -0.552,5.796 -2.852,9.844 -2.3,3.956 -6.256,6.072 -3.956,2.024 -9.476,2.024 z m 45.84006,0 q -3.772,0 -7.084,-1.288 -3.22,-1.38 -5.336,-4.232 -2.024,-2.852 -2.024,-7.636 0,-4.416 1.656,-7.176 1.748,-2.852 4.692,-4.508 2.944,-1.656 6.44,-2.576 3.496,-0.92 7.084,-1.564 4.876,-0.92 7.268,-1.38 2.484,-0.552 3.312,-1.288 0.828,-0.828 0.828,-2.208 0,-3.128 -2.208,-4.692 -2.208,-1.656 -5.796,-1.656 -2.116,0 -4.324,0.828 -2.208,0.736 -3.68,2.76 -1.38,2.024 -1.38,5.612 l -11.868,-1.012 q 0,-5.52 1.84,-9.108 1.932,-3.68 5.152,-5.796 3.22,-2.116 7.084,-3.036 3.864,-0.92 7.636,-0.92 6.808,0 11.316,2.576 4.6,2.484 6.9,7.36 2.3,4.876 2.3,11.96 v 8.74 q 0,3.128 0,6.348 0,3.128 0,6.348 0.092,3.128 0.092,6.256 h -11.684 q 0.092,-3.496 0.184,-7.084 0.092,-3.588 0.092,-7.452 h -0.552 q -0.46,4.324 -2.852,7.912 -2.392,3.588 -6.256,5.796 -3.864,2.116 -8.832,2.116 z m 5.152,-9.844 q 1.84,0 3.864,-0.736 2.116,-0.828 3.864,-2.392 1.748,-1.656 2.852,-4.232 1.104,-2.668 1.104,-6.44 l 0.092,-2.116 2.392,-0.46 q -0.736,1.288 -2.668,2.024 -1.84,0.736 -4.14,1.196 -2.3,0.368 -4.692,0.828 -2.392,0.46 -4.416,1.196 -2.024,0.736 -3.312,2.116 -1.196,1.288 -1.196,3.588 0,2.576 1.748,4.048 1.748,1.38 4.508,1.38 z m 29.28009,8.556 v -26.22 l -0.092,-22.08 h 11.408 l -0.368,20.424 h 0.828 q 0.552,-7.36 2.392,-12.144 1.932,-4.784 5.336,-7.176 3.496,-2.392 8.832,-2.392 7.912,0 11.868,5.428 3.956,5.336 3.956,16.192 v 27.968 h -13.248 v -26.496 q 0,-5.796 -1.748,-8.648 -1.656,-2.852 -5.428,-2.852 -3.22,0 -5.612,2.208 -2.3,2.208 -3.588,6.992 -1.288,4.784 -1.288,12.604 v 16.192 z m 66.55519,1.288 q -5.244,0 -9.476,-2.76 -4.14,-2.852 -6.624,-8.556 -2.484,-5.704 -2.484,-14.536 0,-8.372 2.208,-13.892 2.3,-5.612 6.348,-8.372 4.048,-2.76 9.476,-2.76 4.416,0 7.728,1.84 3.312,1.84 5.428,5.796 2.116,3.864 2.944,10.028 h 0.828 q -0.46,-3.496 -0.92,-6.624 -0.46,-3.128 -0.736,-5.98 -0.184,-2.852 -0.184,-5.244 v -14.168 h 13.34 l -0.092,45.908 0.092,18.032 h -11.684 l 0.276,-15.272 h -0.736 q -1.012,5.428 -3.128,9.2 -2.116,3.68 -5.244,5.52 -3.128,1.84 -7.36,1.84 z m 4.324,-10.764 q 2.208,0 4.14,-1.012 1.932,-1.012 3.22,-2.944 1.38,-1.932 2.116,-4.508 0.828,-2.576 0.828,-5.704 v -0.644 q 0,-2.484 -0.552,-4.6 -0.46,-2.208 -1.38,-3.956 -0.92,-1.748 -2.208,-2.944 -1.288,-1.288 -2.852,-1.932 -1.564,-0.644 -3.312,-0.644 -3.036,0 -5.244,2.024 -2.116,1.932 -3.22,5.244 -1.012,3.22 -1.012,7.36 0,3.956 1.104,7.268 1.104,3.22 3.22,5.152 2.116,1.84 5.152,1.84 z m 51.26808,10.764 q -6.532,0 -11.132,-1.932 -4.508,-1.932 -7.36,-5.336 -2.852,-3.404 -4.14,-7.82 -1.288,-4.416 -1.288,-9.476 0,-5.244 1.288,-9.936 1.38,-4.784 4.14,-8.464 2.76,-3.68 7.176,-5.796 4.416,-2.116 10.396,-2.116 5.98,0 10.304,2.116 4.324,2.024 6.9,5.704 2.668,3.68 3.496,8.648 0.92,4.876 0.092,10.764 l -35.604,0.552 v -7.452 l 25.484,-0.552 -1.84,4.324 q 0.46,-4.232 -0.368,-7.268 -0.828,-3.036 -2.944,-4.6 -2.024,-1.656 -5.52,-1.656 -3.68,0 -5.98,1.932 -2.208,1.84 -3.22,5.244 -1.012,3.404 -1.012,7.912 0,7.82 2.76,11.5 2.852,3.68 8.464,3.68 2.576,0 4.232,-0.644 1.748,-0.736 2.76,-1.932 1.104,-1.288 1.472,-2.944 0.46,-1.656 0.368,-3.588 l 12.144,0.736 q 0.184,3.22 -0.828,6.532 -0.92,3.22 -3.404,5.888 -2.392,2.668 -6.624,4.324 -4.14,1.656 -10.212,1.656 z m 24.55745,-1.288 v -25.392 l -0.092,-22.908 h 11.592 l -0.276,20.056 h 0.736 q 0.552,-7.82 2.208,-12.42 1.656,-4.692 4.14,-6.716 2.576,-2.024 5.796,-2.024 1.564,0 3.22,0.46 1.748,0.368 3.496,1.288 l -0.736,14.628 q -1.84,-1.012 -3.68,-1.472 -1.84,-0.552 -3.404,-0.552 -3.128,0 -5.336,1.932 -2.208,1.932 -3.404,5.704 -1.104,3.68 -1.104,9.016 v 18.4 z"
     id="text1"
     style="font-weight:700;font-size:92px;font-family:'Bricolage Grotesque';letter-spacing:-2;text-anchor:middle;fill:#1b3a5b"
     aria-label="Gander" />
</svg>
